# xmcd
#
# Track frame offsets:
#	150
#	18232
#	31849
#	47282
#	62436
#	76365
#	92354
#	107607
#	124130
#	164149
#	181710
#	198825
#	216733
#	237522
#	249596
#	267539
#	282007
#	299770
#	313723
#	328629
#	339861
#
# Disc length: 4695 seconds
#
# Revision: 1
# Processed by: cddbd v1.5.2PL0 Copyright (c) Steve Scherf et al.
# Submitted via: audiograbber 1.83.01
#
DISCID=2b125515
DTITLE=Various Artist - CDX 327
DYEAR=2003
DGENRE=Country
TTITLE0=Sammy Kershaw - Beer, Bait And Ammo
TTITLE1=Joe Nichols - Cool To Be A Fool
TTITLE2=Lorrie Morgan - Do You Still Want To Buy Me That Drink (Frank)
TTITLE3=The Oak Ridge Boys - Glory Bound
TTITLE4=Blue County - Good Little Girls
TTITLE5=Kenny Rogers - Handprints On The Wall
TTITLE6=Trace Adkins - Hot Mama
TTITLE7=Jeff and Sheri Easter - My Country
TTITLE8=Rascal Flatts - One Good Love (Live Version)
TTITLE9=Shania Twain - She's Not Just A Pretty Face
TTITLE10=Kellie Coffey - Texas Plates
TTITLE11=Lee Greenwood - When A Woman's In Love
TTITLE12=Vince Gill - Young Man's Town
TTITLE13=Wayne Warner - Doing Something Right
TTITLE14=Linda Gail Lewis - Jeff Bates - Relentless
TTITLE15=Ron Barry - Guitars And Girls
TTITLE16=Marshall Madison - Jackson, Mississippi
TTITLE17=Bobby Seals - Who's Gonna Play Piano
TTITLE18=Willie P. Richardson - Boat Loan
TTITLE19=Willie P. Richardson - Deer Hunt Winner
TTITLE20=Willie P. Richardson - Deer Reward
EXTD=
EXTT0=
EXTT1=
EXTT2=
EXTT3=
EXTT4=
EXTT5=
EXTT6=
EXTT7=
EXTT8=
EXTT9=
EXTT10=
EXTT11=
EXTT12=
EXTT13=
EXTT14=
EXTT15=
EXTT16=
EXTT17=
EXTT18=
EXTT19=
EXTT20=
PLAYORDER=
